<svg width="421" height="89" viewBox="0 0 421 89" fill="none" xmlns="http://www.w3.org/2000/svg">
<path d="M0.808001 87V2.52H34.984C40.1893 2.52 44.7973 2.98933 48.808 3.92799C52.904 4.78133 56.36 6.14666 59.176 8.02399C62.0773 9.816 64.296 12.12 65.832 14.936C67.368 17.6667 68.136 20.952 68.136 24.792C68.136 28.12 67.4107 31.064 65.96 33.624C64.5947 36.184 62.4187 38.2747 59.432 39.896C56.4453 41.5173 52.4773 42.584 47.528 43.096V44.76C55.8053 45.272 61.864 47.2773 65.704 50.776C69.6293 54.2747 71.592 58.968 71.592 64.856C71.592 69.72 70.312 73.816 67.752 77.144C65.192 80.3867 61.4373 82.8613 56.488 84.568C51.624 86.1893 45.5227 87 38.184 87H0.808001ZM18.728 72.152H37.672C42.9627 72.152 46.888 71.2987 49.448 69.592C52.0933 67.8853 53.416 65.3253 53.416 61.912C53.416 57.9867 51.7947 55.0853 48.552 53.208C45.3947 51.2453 40.5733 50.264 34.088 50.264H18.728V72.152ZM18.728 38.232H32.04C38.0987 38.232 42.6213 37.336 45.608 35.544C48.5947 33.752 50.088 31.064 50.088 27.48C50.088 23.9813 48.7227 21.4213 45.992 19.8C43.2613 18.0933 39.1653 17.24 33.704 17.24H18.728V38.232ZM83.933 87V2.52H102.365V87H83.933ZM87.645 87V71.384H137.053V87H87.645ZM180.538 88.792C174.479 88.792 169.018 87.8533 164.154 85.976C159.375 84.0133 155.279 81.1973 151.866 77.528C148.538 73.7733 145.978 69.208 144.186 63.832C142.394 58.3707 141.498 52.1413 141.498 45.144C141.498 35.16 143.205 26.9253 146.618 20.44C150.031 13.8693 154.725 8.96266 160.698 5.71999C166.671 2.392 173.498 0.727997 181.178 0.727997C187.151 0.727997 192.527 1.66666 197.306 3.544C202.085 5.42133 206.181 8.23733 209.594 11.992C213.007 15.6613 215.61 20.2693 217.402 25.816C219.194 31.2773 220.09 37.592 220.09 44.76C220.09 52.0133 219.151 58.3707 217.274 63.832C215.482 69.2933 212.837 73.9013 209.338 77.656C205.925 81.3253 201.786 84.0987 196.922 85.976C192.058 87.8533 186.597 88.792 180.538 88.792ZM181.05 73.816C185.487 73.816 189.199 72.7493 192.186 70.616C195.173 68.3973 197.434 65.1973 198.97 61.016C200.506 56.8347 201.274 51.7147 201.274 45.656C201.274 39.256 200.463 33.88 198.842 29.528C197.221 25.0907 194.874 21.72 191.802 19.416C188.815 17.112 185.103 15.96 180.666 15.96C176.399 15.96 172.73 17.0693 169.658 19.288C166.671 21.5067 164.367 24.7493 162.746 29.016C161.21 33.2827 160.442 38.5307 160.442 44.76C160.442 49.5387 160.869 53.7627 161.722 57.432C162.661 61.016 163.983 64.0453 165.69 66.52C167.482 68.9093 169.658 70.744 172.218 72.024C174.778 73.2187 177.722 73.816 181.05 73.816ZM269.663 88.792C263.604 88.792 258.143 87.8533 253.279 85.976C248.5 84.0133 244.404 81.1973 240.991 77.528C237.663 73.7733 235.103 69.208 233.311 63.832C231.519 58.3707 230.623 52.1413 230.623 45.144C230.623 35.16 232.33 26.9253 235.743 20.44C239.156 13.8693 243.85 8.96266 249.823 5.71999C255.796 2.392 262.623 0.727997 270.303 0.727997C276.276 0.727997 281.652 1.66666 286.431 3.544C291.21 5.42133 295.306 8.23733 298.719 11.992C302.132 15.6613 304.735 20.2693 306.527 25.816C308.319 31.2773 309.215 37.592 309.215 44.76C309.215 52.0133 308.276 58.3707 306.399 63.832C304.607 69.2933 301.962 73.9013 298.463 77.656C295.05 81.3253 290.911 84.0987 286.047 85.976C281.183 87.8533 275.722 88.792 269.663 88.792ZM270.175 73.816C274.612 73.816 278.324 72.7493 281.311 70.616C284.298 68.3973 286.559 65.1973 288.095 61.016C289.631 56.8347 290.399 51.7147 290.399 45.656C290.399 39.256 289.588 33.88 287.967 29.528C286.346 25.0907 283.999 21.72 280.927 19.416C277.94 17.112 274.228 15.96 269.791 15.96C265.524 15.96 261.855 17.0693 258.783 19.288C255.796 21.5067 253.492 24.7493 251.871 29.016C250.335 33.2827 249.567 38.5307 249.567 44.76C249.567 49.5387 249.994 53.7627 250.847 57.432C251.786 61.016 253.108 64.0453 254.815 66.52C256.607 68.9093 258.783 70.744 261.343 72.024C263.903 73.2187 266.847 73.816 270.175 73.816ZM322.308 87V2.52H350.084L371.716 65.88H372.228L393.604 2.52H420.1V87H402.692L403.332 21.208H402.436L378.884 87H362.884L339.716 21.208H338.82L339.46 87H322.308Z" fill="#C8BEFD"/>
</svg>
